<?xml version="1.0" encoding="UTF-8"?>
<!DOCTYPE svg PUBLIC "-//W3C//DTD SVG 1.1//EN" "http://www.w3.org/Graphics/SVG/1.1/DTD/svg11.dtd">
<!-- Creator: CorelDRAW X7 -->
<svg xmlns="http://www.w3.org/2000/svg" xml:space="preserve" width="148mm" height="210mm" version="1.1" style="shape-rendering:geometricPrecision; text-rendering:geometricPrecision; image-rendering:optimizeQuality; fill-rule:evenodd; clip-rule:evenodd"
viewBox="0 0 14800 21000"
 xmlns:xlink="http://www.w3.org/1999/xlink">
 <defs>
  <style type="text/css">
   <![CDATA[
    .fil7 {fill:#001627}
    .fil16 {fill:#04273D}
    .fil10 {fill:#231E2D}
    .fil17 {fill:#2B3B46}
    .fil6 {fill:#2C263A}
    .fil5 {fill:#303F49}
    .fil19 {fill:#7EBABA}
    .fil13 {fill:#8691A1}
    .fil12 {fill:#959FAF}
    .fil15 {fill:#99A7BB}
    .fil18 {fill:#99CCCC}
    .fil14 {fill:#AAB8CC}
    .fil11 {fill:#C4817A}
    .fil3 {fill:#E5B09E}
    .fil2 {fill:#E5E7E9}
    .fil1 {fill:#E8E8E8}
    .fil9 {fill:#F2AEA0}
    .fil0 {fill:#FFC0B1}
    .fil8 {fill:#FFC1AC}
    .fil4 {fill:white}
   ]]>
  </style>
 </defs>
 <g id="Слой_x0020_1">
  <metadata id="CorelCorpID_0Corel-Layer"/>
  <path class="fil0" d="M5040 4278l-497 0c22,-181 44,-337 60,-435 -57,-39 -42,-94 -54,-200 -31,-285 22,-479 114,-325 0,0 100,-131 139,8 0,0 61,-124 131,0 0,0 107,-131 154,30 27,96 -9,397 -76,555l29 367z"/>
  <path class="fil0" d="M5060 3608c-14,-18 -29,-38 -43,-57 -175,-49 -281,-112 -461,-116 -8,54 13,130 20,200 11,106 33,157 90,196 -4,24 -72,67 -76,99 154,-48 312,-91 472,-130 12,-53 21,-110 27,-166 -10,-6 -20,-15 -29,-26z"/>
  <path class="fil0" d="M4663 3318c0,0 3,-90 -74,-90 -20,1 -41,42 -45,97l-3 152c1,3 2,6 2,10l0 -1c3,8 4,13 6,21 0,2 0,7 0,3 4,10 2,21 5,31 4,5 3,90 3,101 97,-16 106,-324 106,-324z"/>
  <path class="fil0" d="M4804 3339c0,0 3,-94 -74,-94 -77,0 -184,392 -64,428 120,36 138,-334 138,-334z"/>
  <path class="fil0" d="M4937 3352c0,0 3,-94 -74,-94 -77,0 -184,392 -64,428 119,35 138,-334 138,-334z"/>
  <path class="fil1" d="M7149 19150c1831,0 3315,-180 3315,-402 0,-222 -1484,-402 -3315,-402 -1832,0 -3316,180 -3316,402 0,222 1484,402 3316,402z"/>
  <path class="fil2" d="M4632 15050c304,-691 364,-1042 374,-1182 0,-1 0,-1 0,-2 -9,139 -68,490 -374,1184zm376 -1236c0,-1 0,-2 0,-3 -1,-13 -1,-19 -1,-19l0 0c0,0 0,8 1,22z"/>
  <path class="fil3" d="M5006 13868c2,-26 2,-44 2,-57 0,1 0,2 0,3 0,2 0,3 0,4 -1,14 -1,26 -1,39 0,3 -1,6 -1,9 0,1 0,1 0,2z"/>
  <path class="fil2" d="M5068 13154c4,-30 7,-59 10,-89 -3,30 -6,59 -10,89z"/>
  <path class="fil3" d="M5781 14186c134,-212 269,-530 437,-889l0 0c196,-416 343,-1044 432,-1496 -19,0 -40,0 -65,-1 -277,-10 -891,-73 -1314,-431 0,0 -20,-9 -43,-36 -12,117 -19,229 -22,335 -15,434 23,780 12,1096 -2,68 -7,134 -15,200l0 0c-3,30 -7,60 -11,89 -27,229 -54,441 -67,628 108,-387 278,-556 425,-550 223,7 396,411 231,1055z"/>
  <path class="fil3" d="M4888 18223c0,0 76,-964 475,-2053 400,-1090 247,-1382 431,-1994l0 0c8,-26 14,-51 21,-76 0,0 1,-1 1,-1 171,-644 -10,-1048 -243,-1056 -154,-5 -331,163 -444,549 0,0 0,1 0,1l-2 8c0,0 0,6 0,19 0,13 -1,31 -3,57 -13,140 -74,489 -348,1170l0 0c-177,441 -246,900 -263,1371 -18,529 31,1074 69,1624l306 381z"/>
  <path class="fil4" d="M4398 18102c105,84 247,125 396,125 54,0 105,-12 151,-32l-53 345c0,0 -195,559 -665,435 -329,-87 -34,-584 171,-873z"/>
  <path class="fil5" d="M4187 18438c129,-258 314,-499 314,-499 0,0 245,167 490,-38l-99 639c0,0 -47,103 -167,249 -47,-271 -282,-339 -538,-351z"/>
  <path class="fil5" d="M4768 18048c0,0 182,-234 65,-256 -117,-22 -438,-314 -365,234 58,436 300,22 300,22z"/>
  <path class="fil4" d="M4720 18112c-69,-35 -144,-51 -217,-73 -27,-9 -16,-51 11,-43 77,24 156,41 228,77 25,13 3,51 -22,39z"/>
  <path class="fil4" d="M4676 18223c-70,-32 -147,-45 -220,-65 -28,-8 -16,-50 11,-43 78,21 157,36 231,70 26,12 3,50 -22,38z"/>
  <path class="fil4" d="M4611 18331c-67,-37 -141,-57 -213,-82 -27,-9 -16,-52 11,-42 76,26 154,47 224,86 25,13 3,52 -22,38z"/>
  <path class="fil6" d="M4854 18627c-15,21 -31,42 -48,64 -52,67 -113,134 -181,185 -67,52 -140,87 -218,88l-14 -1c-134,-7 -224,-37 -281,-93 -10,-10 -19,-21 -27,-33 -9,-39 -7,-84 3,-133 6,57 24,100 57,133 44,44 122,73 251,80l11 0c62,0 128,-30 190,-78 94,-71 180,-181 241,-272 27,-41 50,-77 66,-106l-12 79c0,0 -12,35 -38,87z"/>
  <path class="fil7" d="M6605 3784c0,0 -483,672 -273,1961 0,0 175,84 315,98l21 -511 7 525 308 35 -378 -2108z"/>
  <path class="fil8" d="M7053 11139c0,0 202,1389 545,2131 343,742 549,1318 884,1185 335,-134 232,-748 136,-1534 -96,-786 248,-1684 -547,-3611 -795,-1927 -1439,454 -1018,1829z"/>
  <polygon class="fil9" points="7116,5498 7044,6251 6467,6299 7200,7104 8225,6386 7746,6279 7751,5263 "/>
  <path class="fil0" d="M7332 3815c0,0 -817,76 -907,1104 -89,1027 661,1118 1140,1008 478,-110 724,-527 772,-834 48,-307 -213,-1312 -1005,-1278z"/>
  <path class="fil10" d="M7348 4937c4,80 36,143 70,141 34,-2 58,-68 53,-148 -4,-79 -35,-142 -69,-141 -34,2 -59,69 -54,148z"/>
  <path class="fil10" d="M6645 4913c5,80 36,143 70,141 34,-2 58,-68 53,-148 -4,-79 -35,-142 -69,-141 -34,2 -58,68 -54,148z"/>
  <path class="fil7" d="M7133 4650c86,-10 161,-18 235,-12 37,1 73,8 110,17 37,9 73,25 115,38 -21,-38 -52,-73 -91,-94 -38,-24 -84,-37 -129,-40 -45,-3 -90,3 -132,19 -41,15 -80,38 -108,72z"/>
  <path class="fil7" d="M6475 4618c78,-24 144,-47 206,-45 31,-1 61,6 92,19 31,12 61,33 99,52 -10,-40 -30,-79 -64,-107 -33,-30 -80,-47 -125,-47 -46,0 -90,13 -125,36 -36,23 -66,53 -83,92z"/>
  <path class="fil11" d="M6822 5090c-32,11 -56,33 -77,55 -19,23 -36,42 -52,65l-23 33 30 21c23,16 48,29 74,41 27,12 54,23 85,28 -15,-28 -33,-51 -52,-72 -20,-21 -40,-41 -63,-58l7 54c21,-22 37,-51 48,-78 10,-28 18,-55 23,-89z"/>
  <path class="fil12" d="M5721 9006c0,0 -670,637 -662,2051 0,0 573,530 1963,618 0,0 750,-331 1786,-375 0,0 -176,-1808 -1036,-2625 -860,-816 -1390,-374 -2051,331z"/>
  <path class="fil13" d="M6912 11593c-23,-139 -29,-282 -25,-424 -683,-219 -1293,-604 -1670,-1240 -86,277 -151,619 -158,1030 24,13 815,450 1853,634z"/>
  <path class="fil14" d="M5059 10958c0,0 821,461 1897,643 0,0 66,115 16,248 0,0 -1141,74 -1877,-381 0,0 -160,-49 -135,-289 13,-134 33,-270 99,-221z"/>
  <path class="fil15" d="M6787 11853c97,0 162,-3 180,-4 3,0 5,0 5,0 14,-36 19,-71 19,-103 0,-84 -35,-145 -35,-145 -1076,-182 -1897,-643 -1897,-643 -10,-7 -18,-10 -26,-10 -46,0 -62,116 -73,231 -2,17 -3,33 -3,49 0,198 138,240 138,240 554,343 1339,385 1692,385z"/>
  <path class="fil8" d="M8704 13673c0,0 -22,322 347,1292 370,970 272,2027 209,3106l-292 396c0,0 -80,-1000 -473,-2129 -394,-1130 -248,-1433 -430,-2067 -337,-1174 354,-1640 639,-598z"/>
  <path class="fil16" d="M7798 4657c0,0 -47,1093 -159,1438 0,0 271,56 533,-56 0,0 112,-308 130,-504 0,0 -46,411 -84,514 0,0 263,-127 457,-353l93 -420 -56 429 112 -72c0,0 291,-1013 20,-1545 -271,-533 -910,-823 -1345,-757 -480,73 -1046,252 -1130,1074 0,0 252,93 430,103 0,0 65,-420 187,-570 0,0 -159,383 -122,588 0,0 243,38 374,10 0,0 -10,-308 84,-570 0,0 -75,458 -28,579 0,0 129,34 276,30 0,0 13,-310 4,-572 0,0 37,441 22,591 124,56 236,19 236,19 -63,-365 72,-330 -62,-488 0,0 19,271 28,532z"/>
  <path class="fil7" d="M8844 4087l-5 -7c-56,227 -152,440 -305,610 -229,254 -485,401 -770,521 -26,325 -67,705 -125,884 0,0 271,56 533,-56 0,0 112,-308 130,-504 0,0 -46,411 -84,514 0,0 263,-127 457,-353l93 -420 -56 429 112 -72c0,0 291,-1013 20,-1546z"/>
  <path class="fil4" d="M9439 18102c-106,84 -247,125 -396,125 -54,0 -105,-12 -151,-32l53 345c0,0 195,559 665,435 329,-87 34,-584 -171,-873z"/>
  <path class="fil5" d="M9650 18438c-129,-258 -314,-499 -314,-499 0,0 -245,167 -490,-38l99 639c0,0 47,103 167,249 47,-271 282,-339 538,-351z"/>
  <path class="fil5" d="M9069 18048c0,0 -182,-234 -65,-256 116,-22 438,-314 365,234 -59,436 -300,22 -300,22z"/>
  <path class="fil4" d="M9095 18073c72,-36 151,-53 228,-77 27,-8 38,34 11,43 -73,22 -148,38 -217,73 -25,12 -47,-26 -22,-39z"/>
  <path class="fil4" d="M9139 18185c74,-34 153,-49 231,-70 27,-7 39,35 11,43 -73,19 -150,33 -220,65 -25,12 -48,-26 -22,-38z"/>
  <path class="fil4" d="M9204 18293c70,-39 148,-60 223,-86 27,-10 39,33 12,42 -72,25 -146,45 -213,82 -25,14 -47,-25 -22,-38z"/>
  <path class="fil6" d="M8933 18461c35,61 97,160 174,250 95,112 214,207 323,206l11 0c129,-7 207,-36 251,-80 33,-33 50,-76 57,-133 10,49 12,93 3,133 -8,12 -17,23 -27,33 -57,56 -147,86 -281,93l-14 1c-78,-1 -151,-36 -219,-88 -88,-67 -167,-163 -228,-249 -26,-52 -38,-87 -38,-87l-12 -79z"/>
  <path class="fil5" d="M6082 8856c-111,-33 -168,-59 -168,-59 -116,25 -166,157 -166,157 0,0 97,39 263,89 23,-63 47,-125 71,-187z"/>
  <path class="fil5" d="M7749 9176c225,-31 381,-65 381,-65 8,-132 -124,-198 -124,-198 -107,18 -211,33 -311,45 16,73 34,145 54,218z"/>
  <path class="fil5" d="M7563 8972c-617,56 -1077,-14 -1353,-82 -24,63 -48,126 -71,189 162,44 367,90 602,123 280,39 608,21 876,-10 -19,-73 -38,-146 -54,-220z"/>
  <path class="fil14" d="M8771 11082c0,0 -454,280 -1610,465 -295,15 -272,81 -272,106 0,79 19,128 78,221 0,0 1161,74 1841,-381 0,0 103,-37 80,-169 -23,-132 -56,-291 -117,-242z"/>
  <path class="fil2" d="M7792 8695c0,0 0,0 0,0 0,0 0,0 0,0zm-5 -5c-1,-1 -1,-1 -1,-1 0,0 0,0 1,1zm-3 -3c-1,0 -1,-1 -1,-1 0,0 0,1 1,1zm-3 -3c0,0 -1,0 -1,-1 0,1 1,1 1,1zm-3 -2c0,-1 0,-1 -1,-1 1,0 1,0 1,1zm-2 -3c-1,0 -1,-1 -2,-1 1,0 1,1 2,1z"/>
  <path class="fil13" d="M7602 9135c44,-2 89,-5 134,-8 -15,-56 -28,-112 -41,-169 94,-11 191,-25 291,-42 -60,-79 -125,-153 -194,-221 0,0 0,0 0,0 -2,-2 -4,-4 -5,-5 -1,-1 -1,-1 -1,-1 -1,-1 -2,-1 -2,-2 -1,0 -1,-1 -1,-1 -1,-1 -1,-1 -2,-2 0,0 -1,0 -1,-1 -1,0 -1,-1 -2,-1 0,-1 0,-1 -1,-1 0,-1 -1,-1 -1,-2 -1,0 -1,-1 -2,-1 0,-1 -1,-2 -2,-3 -329,-311 -609,-440 -867,-440 -348,0 -655,234 -985,564 17,8 72,30 162,57 -9,23 -18,47 -27,70 39,14 81,28 125,42 10,-26 20,-52 30,-78 205,51 513,102 911,102 137,0 284,-6 442,-20 12,54 25,109 39,163z"/>
  <path class="fil17" d="M6055 8926c9,-23 18,-47 27,-70 -90,-27 -145,-49 -162,-57 -18,18 -35,36 -53,54 55,24 118,49 188,73z"/>
  <path class="fil17" d="M7736 9127c119,-9 242,-22 369,-41 -37,-59 -77,-115 -119,-170 -100,17 -197,31 -291,42 12,56 26,113 41,169z"/>
  <path class="fil17" d="M7381 9140c72,0 145,-1 221,-5 -14,-54 -27,-109 -39,-163 -158,14 -305,20 -442,20 -398,0 -706,-51 -911,-102 -10,26 -20,52 -30,78 299,92 702,172 1201,172z"/>
  <path class="fil18" d="M5732 7407c66,-397 206,-819 372,-1017 96,-115 403,-186 644,-225 133,258 651,529 1217,35 402,74 704,271 936,591 -195,382 -382,768 -580,1148l0 2c-9,7 -16,24 -21,52 -6,21 -9,41 -9,61 -19,172 -26,490 -120,677 -132,264 -2109,231 -2324,-50 -215,-281 -182,-877 -115,-1274z"/>
  <path class="fil18" d="M4948 6234c-193,220 -286,134 -475,358 -8,-72 -88,-31 -93,-108 -57,-882 -123,-1720 -116,-1876 13,-267 229,-337 229,-337l23 -165c140,-153 562,-45 562,-45l21 192c378,263 244,626 263,1107 10,270 -12,608 -23,855 -104,-90 -275,-114 -391,19z"/>
  <path class="fil19" d="M8439 7715c-101,160 -383,483 -549,597 -342,237 -741,399 -1161,412 -309,10 -605,-20 -902,-74 7,10 13,21 20,31 215,281 2192,314 2324,50 133,-265 269,-1004 268,-1016z"/>
  <path class="fil18" d="M6748 6165c0,0 -642,-125 -1244,-189 -161,-17 -226,-91 -264,-401 -34,-281 -642,-992 -694,-910 -175,275 -282,1802 -113,2008 148,181 1990,532 1990,532l325 -1040z"/>
  <path class="fil0" d="M8362 7549l864 1033 -935 714c0,0 -170,-275 -259,-230 -230,117 -807,413 -161,199 0,0 -603,623 122,75 0,0 -542,656 101,155 0,0 -489,637 70,104 0,0 61,180 235,101 174,-80 1558,-734 1728,-984 171,-250 -1126,-1617 -1126,-1617l-639 450z"/>
  <path class="fil18" d="M7965 6200c0,0 623,16 1211,792 588,776 1239,1677 963,1877 -275,201 -1263,939 -1476,714l-226 -401c0,0 -37,-62 76,-188 112,-125 638,-463 638,-463l-889 -1013 -297 -1318z"/>
  <polygon class="fil18" points="8769,9541 8554,9645 8325,9254 8540,9098 "/>
  <path class="fil4" d="M7255 5560l-535 -17c0,0 246,306 535,17z"/>
  <g>
   <path class="fil0" d="M5013 3677c-41,7 85,-84 49,-182 -82,-31 33,-75 33,-75 0,0 26,-554 -22,-560 -42,-6 -103,283 -114,359l-25 105c1,8 3,-2 -1,2 6,16 -22,27 -32,37 -5,10 31,3 22,10 -12,11 -23,22 -33,34 -14,16 -28,30 -41,47 -10,13 -24,25 -36,35 -3,6 -6,8 -11,11 -10,9 -20,18 -29,28 -7,10 -10,12 -21,19l-60 91c136,924 338,-23 321,39zm-127 -329l-1 -1 1 1z"/>
  </g>
  <path class="fil0" d="M5023 3846c0,0 236,-148 280,-378 28,-151 -226,83 -271,185 -44,101 -9,193 -9,193z"/>
 </g>
</svg>
