<?xml version="1.0" encoding="UTF-8"?>
<!DOCTYPE svg PUBLIC "-//W3C//DTD SVG 1.1//EN" "http://www.w3.org/Graphics/SVG/1.1/DTD/svg11.dtd">
<!-- Creator: CorelDRAW X7 -->
<svg xmlns="http://www.w3.org/2000/svg" xml:space="preserve" width="148mm" height="210mm" version="1.1" style="shape-rendering:geometricPrecision; text-rendering:geometricPrecision; image-rendering:optimizeQuality; fill-rule:evenodd; clip-rule:evenodd"
viewBox="0 0 14800 21000"
 xmlns:xlink="http://www.w3.org/1999/xlink">
 <defs>
  <style type="text/css">
   <![CDATA[
    .fil6 {fill:#001627}
    .fil17 {fill:#04273D}
    .fil19 {fill:#231E2D}
    .fil18 {fill:#2B3B46}
    .fil16 {fill:#2C263A}
    .fil15 {fill:#303F49}
    .fil2 {fill:#7EBABA}
    .fil12 {fill:#8691A1}
    .fil11 {fill:#959FAF}
    .fil14 {fill:#99A7BB}
    .fil1 {fill:#99CCCC}
    .fil13 {fill:#AAB8CC}
    .fil9 {fill:#C4817A}
    .fil3 {fill:#D1D3D5}
    .fil5 {fill:#E5B09E}
    .fil4 {fill:#E5E7E9}
    .fil7 {fill:#F2AEA0}
    .fil8 {fill:#FFC0B1}
    .fil0 {fill:#FFC1AC}
    .fil10 {fill:white}
   ]]>
  </style>
 </defs>
 <g id="Слой_x0020_1">
  <metadata id="CorelCorpID_0Corel-Layer"/>
  <path class="fil0" d="M12282 7873c0,0 397,-9 378,44 -20,53 -236,60 -236,60 0,0 551,295 527,338 -24,43 -468,-171 -468,-171 0,0 851,739 -75,135 0,0 710,774 -97,76 0,0 425,806 -250,-134 -675,-941 221,-348 221,-348z"/>
  <path class="fil1" d="M8626 5512c406,-56 831,78 1308,378 728,457 1847,1300 1992,1346 144,46 249,442 249,442l117 112c41,198 -274,424 -274,424l-163 -93c-423,148 -1062,-428 -1452,-687 -361,-241 -1276,-839 -1380,-866 -311,-397 -135,-627 -397,-1056z"/>
  <path class="fil2" d="M10089 5989c-53,-34 -105,-68 -155,-99 -477,-300 -902,-434 -1308,-378 262,429 86,659 397,1056 72,18 525,306 919,562 51,-380 102,-760 147,-1141z"/>
  <path class="fil3" d="M8990 17469l0 0c0,0 0,0 0,0 0,0 0,0 0,0zm0 0c-3,0 -7,-1 -10,-2 3,1 6,2 10,2z"/>
  <path class="fil4" d="M9415 14803c71,-416 163,-831 287,-1201 -124,370 -216,785 -287,1201zm290 -1210c1,-1 1,-3 2,-4 -1,1 -1,3 -2,4zm15 -43c1,-1 1,-3 2,-5 -1,2 -1,4 -2,5zm3 -9c0,0 1,-1 1,-2 0,1 -1,2 -1,2zm3 -7c0,0 0,0 0,0 0,0 0,0 0,0zm0 0c1,-3 2,-6 3,-9 -1,3 -2,6 -3,9zm4 -14l-15 -7 15 7z"/>
  <path class="fil5" d="M9667 13417l-677 -444c1,-7 1,-15 1,-23 17,-427 -260,-1172 -229,-1954 2,-56 6,-112 11,-168 20,2 68,7 135,9 276,11 890,-5 1337,-318 -85,982 -309,2235 -579,2898l1 0z"/>
  <path class="fil5" d="M8927 17301l0 0c-3,0 -5,-1 -7,-2 -1,0 -1,0 -1,0l0 0c-154,-54 -467,-1346 -424,-2420 14,-354 67,-684 177,-938 228,-528 321,-1013 321,-1013l0 0 675 444 12 8c-1,1 -1,3 -2,4 -1,3 -2,6 -3,9l0 0c0,0 0,0 0,0 0,2 -1,4 -1,5 -1,1 -1,2 -1,2 0,2 -1,3 -1,4 -1,2 -1,3 -2,5 -4,13 -8,25 -12,38 0,1 -1,3 -1,5 -1,2 -2,5 -3,8 -115,366 -206,777 -279,1191 -234,1315 -300,2655 -448,2650 0,0 0,0 0,0z"/>
  <path class="fil6" d="M8828 3122c0,0 469,654 265,1907 0,0 -170,82 -306,96l-21 -497 -7 510 -299 34 368 -2050z"/>
  <path class="fil0" d="M8565 10634c0,0 -364,1258 -801,1891 -438,633 -715,1134 -1048,953 -332,-181 -158,-735 29,-1451 186,-716 -71,-1610 966,-3269 1038,-1658 1442,667 854,1876z"/>
  <polygon class="fil7" points="8330,4789 8400,5521 8962,5568 8248,6351 7252,5653 7718,5549 7713,4560 "/>
  <path class="fil8" d="M8120 3152c0,0 795,74 882,1074 88,999 -643,1087 -1108,981 -465,-107 -704,-513 -751,-812 -46,-298 207,-1276 977,-1243z"/>
  <path class="fil6" d="M8314 3964c-84,-9 -156,-18 -228,-12 -36,2 -71,8 -107,18 -37,8 -71,23 -113,36 21,-37 51,-70 89,-92 37,-23 81,-35 125,-39 44,-2 88,4 129,19 40,15 77,37 105,70z"/>
  <path class="fil6" d="M8954 3933c-76,-24 -141,-45 -201,-44 -30,0 -59,6 -89,19 -30,12 -59,32 -96,51 9,-39 29,-77 62,-104 32,-30 77,-46 122,-47 44,1 87,14 121,36 35,22 64,51 81,89z"/>
  <path class="fil9" d="M8616 4393c32,10 55,32 75,53 19,22 35,41 50,63l23 32 -29 20c-23,16 -47,29 -72,41 -26,11 -52,21 -83,26 15,-27 33,-49 51,-69 19,-21 39,-40 61,-57l-6 53c-21,-22 -37,-50 -47,-76 -10,-28 -18,-53 -23,-86z"/>
  <path class="fil10" d="M8639 4798l-521 -17c0,0 240,298 521,17z"/>
  <path class="fil11" d="M9688 8201c0,0 651,619 643,1995 0,0 -558,515 -1909,600 0,0 -729,-321 -1737,-364 0,0 171,-1759 1008,-2553 836,-793 1351,-364 1995,322z"/>
  <path class="fil12" d="M8529 10717c22,-136 28,-275 24,-413 664,-213 1258,-587 1624,-1205 84,269 147,601 154,1001 -23,12 -793,438 -1802,617z"/>
  <path class="fil13" d="M10331 10099c0,0 -799,448 -1845,625 0,0 -64,113 -16,241 0,0 1110,73 1826,-370 0,0 156,-48 132,-281 -14,-131 -33,-263 -97,-215z"/>
  <path class="fil14" d="M8650 10970c-85,0 -144,-3 -168,-4 -8,-1 -12,-1 -12,-1 -13,-35 -18,-69 -18,-100 0,-82 34,-141 34,-141 1046,-177 1845,-625 1845,-625 9,-7 18,-10 25,-10 45,0 60,113 72,225 1,17 2,32 2,47 0,193 -134,234 -134,234 -539,334 -1302,375 -1646,375z"/>
  <path class="fil0" d="M6581 12692c0,0 -65,312 -712,1070 -648,759 -833,1795 -1061,2836l196 494c0,0 355,-907 1070,-1806 716,-898 647,-1244 1009,-1765 668,-964 77,-1691 -502,-829z"/>
  <polygon class="fil10" points="10217,17516 8697,17446 8696,17596 10219,17592 "/>
  <path class="fil10" d="M9178 16990l-481 120 -1 363 1521 43c0,0 -35,-157 -1039,-526z"/>
  <path class="fil15" d="M9774 17304c-44,56 -65,127 -61,198l-1017 -29 1 -363 481 -120c287,105 494,194 645,266 -18,14 -34,30 -49,48z"/>
  <path class="fil10" d="M9300 17019c-52,53 -89,118 -131,179 -16,23 22,44 37,22 40,-59 75,-120 125,-171 19,-19 -11,-50 -31,-30z"/>
  <path class="fil10" d="M9403 17049c-53,53 -89,118 -131,179 -16,23 21,45 37,22 40,-58 74,-120 124,-170 20,-20 -11,-50 -30,-31z"/>
  <path class="fil10" d="M9515 17088c-52,53 -89,118 -131,179 -16,22 22,44 37,21 40,-58 75,-120 125,-170 19,-19 -11,-50 -31,-30z"/>
  <path class="fil15" d="M9269 17037c0,0 -11,-198 -80,-164 -68,34 -300,40 -170,267 131,227 250,-103 250,-103z"/>
  <polygon class="fil16" points="9588,17487 8697,17466 8697,17512 10218,17548 10217,17516 "/>
  <path class="fil17" d="M7667 3971c0,0 46,1063 155,1399 0,0 -264,54 -518,-55 0,0 -109,-299 -127,-490 0,0 45,400 82,500 0,0 -256,-124 -445,-343l-91 -409 55 418 -108 -71c0,0 -283,-985 -20,-1503 263,-517 885,-799 1308,-735 467,70 1017,245 1099,1044 0,0 -245,91 -418,100 0,0 -63,-409 -182,-554 0,0 155,372 119,572 0,0 -237,36 -364,9 0,0 9,-299 -82,-554 0,0 73,445 28,563 0,0 -127,33 -269,30 0,0 -13,-302 -4,-557 0,0 -36,429 -21,575 -121,55 -230,18 -230,18 62,-355 -69,-321 60,-474 0,0 -18,263 -27,517z"/>
  <path class="fil6" d="M6650 3417l4 -7c55,221 148,428 297,593 224,247 472,391 750,507 25,315 64,686 121,860 0,0 -264,54 -518,-55 0,0 -109,-299 -127,-490 0,0 45,400 82,500 0,0 -256,-124 -445,-343l-91 -409 55 418 -108 -71c0,0 -283,-985 -20,-1503z"/>
  <path class="fil10" d="M4552 16741c78,114 204,197 350,243 52,16 106,19 158,13l-157 322c0,0 -360,488 -782,224 -296,-185 143,-582 431,-802z"/>
  <path class="fil15" d="M4244 17006c205,-214 459,-393 459,-393 0,0 189,237 490,111l-290 595c0,0 -78,87 -239,193 36,-279 -173,-417 -420,-506z"/>
  <path class="fil15" d="M4930 16800c0,0 249,-173 142,-230 -108,-57 -334,-440 -428,118 -75,444 286,112 286,112z"/>
  <path class="fil10" d="M4897 16816c-60,-57 -132,-98 -200,-144 -24,-16 -46,23 -22,39 64,44 133,83 190,137 21,21 53,-11 32,-32z"/>
  <path class="fil10" d="M4820 16912c-62,-55 -135,-94 -205,-138 -24,-16 -47,24 -22,39 66,42 136,78 195,131 21,19 53,-13 32,-32z"/>
  <path class="fil10" d="M4724 16998c-57,-60 -127,-103 -193,-152 -23,-17 -46,22 -23,39 63,47 130,88 184,145 20,21 52,-11 32,-32z"/>
  <path class="fil16" d="M4939 17245c-46,42 -119,105 -204,163 -111,77 -242,143 -351,143 -29,0 -56,-5 -81,-14 -92,-34 -153,-72 -190,-112 -37,-40 -52,-82 -52,-133 0,-18 2,-37 5,-56 -24,44 -39,88 -43,129 10,33 28,64 55,93 44,48 112,88 209,124 31,11 63,16 97,16 145,0 303,-93 426,-184 10,-8 20,-15 29,-22 41,-42 64,-73 64,-73l36 -74z"/>
  <path class="fil15" d="M9336 8054c108,-32 164,-57 164,-57 112,24 161,153 161,153 0,0 -94,38 -256,87 -22,-61 -45,-122 -69,-183z"/>
  <path class="fil15" d="M7715 8366c-219,-30 -371,-63 -371,-63 -8,-129 121,-193 121,-193 104,18 205,33 303,44 -16,71 -34,141 -53,212z"/>
  <path class="fil15" d="M7896 8167c600,55 1048,-13 1316,-79 23,61 46,122 69,184 -158,42 -357,87 -585,119 -273,39 -593,20 -853,-9 19,-72 37,-143 53,-215z"/>
  <path class="fil13" d="M6721 10220c0,0 441,272 1566,452 286,14 264,78 264,103 0,77 -18,125 -75,214 0,0 -1129,73 -1791,-370 0,0 -100,-35 -78,-164 23,-129 55,-283 114,-235z"/>
  <path class="fil4" d="M7690 7882c0,0 0,0 0,0 0,0 0,0 0,0z"/>
  <path class="fil12" d="M7858 8326c-43,-2 -86,-4 -130,-8 14,-54 27,-109 40,-164 -92,-11 -186,-24 -284,-41 64,-83 132,-161 206,-231 0,0 0,0 0,0 1,-1 2,-2 3,-3 319,-303 592,-428 843,-428 339,0 637,227 958,549 -17,7 -71,28 -158,54 9,23 18,46 27,69 -39,14 -80,27 -123,40 -9,-25 -19,-50 -28,-75 -200,49 -499,99 -886,99 -133,0 -277,-6 -430,-20 -12,53 -25,106 -38,159z"/>
  <path class="fil18" d="M9363 8123c-9,-23 -18,-46 -27,-69 87,-26 141,-47 158,-54 17,17 34,34 51,52 -53,23 -114,47 -182,71z"/>
  <path class="fil18" d="M7728 8318c-116,-8 -236,-21 -360,-39 37,-57 76,-113 116,-166 98,17 192,30 284,41 -13,55 -26,110 -40,164z"/>
  <path class="fil18" d="M8073 8331c-70,0 -141,-1 -215,-5 13,-53 26,-106 38,-159 153,14 297,20 430,20 387,0 686,-50 886,-99 9,25 19,50 28,75 -290,90 -682,168 -1167,168z"/>
  <path class="fil1" d="M9677 6646c-64,-386 -201,-797 -362,-990 -93,-112 -392,-180 -627,-218 -129,251 -633,514 -1183,33 -351,65 -625,227 -840,485 245,389 418,832 499,1214 46,70 21,525 140,763 129,257 2051,225 2260,-49 209,-273 177,-852 113,-1238z"/>
  <path class="fil0" d="M4407 8659c0,0 -391,71 -361,119 29,48 243,11 243,11 0,0 -481,400 -449,437 32,37 425,-261 425,-261 0,0 -686,895 100,117 0,0 -540,901 110,55 0,0 -254,875 219,-182 472,-1057 -287,-296 -287,-296z"/>
  <path class="fil1" d="M7515 5490c-408,34 -794,256 -1195,652 -611,604 -1522,1669 -1653,1745 -132,76 -149,486 -149,486l-89 134c2,202 358,354 358,354l140 -126c445,54 944,-646 1268,-984 301,-313 1065,-1095 1161,-1144 218,-455 -4,-641 159,-1117z"/>
  <path class="fil2" d="M8707 7927c-409,-13 -796,-171 -1129,-401 -151,-104 -286,-228 -406,-365l-8 10c46,69 21,524 140,762 129,257 2051,225 2260,-49 7,-9 14,-19 20,-30 -289,53 -577,82 -877,73z"/>
  <path class="fil19" d="M8918 4312c-24,-26 -50,-44 -75,-59 -26,-14 -52,-24 -75,-25 -23,-3 -41,4 -61,23 -20,20 -33,49 -53,79 -8,-34 -10,-72 9,-109 9,-18 24,-34 43,-47 21,-11 44,-16 66,-15 44,4 79,25 105,53 25,27 43,64 41,100z"/>
  <path class="fil19" d="M8258 4335c-25,-26 -50,-44 -75,-59 -26,-14 -53,-25 -76,-26 -23,-2 -40,5 -60,24 -20,19 -33,49 -54,79 -7,-34 -9,-72 10,-109 8,-18 24,-34 43,-47 20,-11 44,-17 66,-15 43,4 79,25 105,53 25,27 43,64 41,100z"/>
 </g>
</svg>
