<?xml version="1.0" encoding="UTF-8"?>
<!DOCTYPE svg PUBLIC "-//W3C//DTD SVG 1.1//EN" "http://www.w3.org/Graphics/SVG/1.1/DTD/svg11.dtd">
<!-- Creator: CorelDRAW X7 -->
<svg xmlns="http://www.w3.org/2000/svg" xml:space="preserve" width="148mm" height="210mm" version="1.1" style="shape-rendering:geometricPrecision; text-rendering:geometricPrecision; image-rendering:optimizeQuality; fill-rule:evenodd; clip-rule:evenodd"
viewBox="0 0 14800 21000"
 xmlns:xlink="http://www.w3.org/1999/xlink">
 <defs>
  <style type="text/css">
   <![CDATA[
    .fil14 {fill:#001627}
    .fil17 {fill:#04273D}
    .fil22 {fill:#231E2D}
    .fil12 {fill:#2B3B46}
    .fil11 {fill:#2C263A}
    .fil10 {fill:#303F49}
    .fil21 {fill:#542A2A}
    .fil19 {fill:#7EBABA}
    .fil6 {fill:#8691A1}
    .fil5 {fill:#959FAF}
    .fil8 {fill:#99A7BB}
    .fil18 {fill:#99CCCC}
    .fil7 {fill:#AAB8CC}
    .fil20 {fill:#B77070}
    .fil16 {fill:#C4817A}
    .fil2 {fill:#D1D3D5}
    .fil3 {fill:#E5B09E}
    .fil1 {fill:#E5E7E9}
    .fil0 {fill:#E8E8E8}
    .fil13 {fill:#F2AEA0}
    .fil15 {fill:#FFC0B1}
    .fil4 {fill:#FFC1AC}
    .fil9 {fill:white}
   ]]>
  </style>
 </defs>
 <g id="Слой_x0020_1">
  <metadata id="CorelCorpID_0Corel-Layer"/>
  <path class="fil0" d="M7282 19582c-1778,0 -3219,-194 -3219,-432 0,-239 1441,-432 3219,-432 281,0 554,4 814,14 61,110 116,177 160,188l0 0c2,1 4,1 7,1 1,1 2,1 3,1 42,0 76,-64 106,-179 1241,60 2128,219 2128,407 1,238 -1441,432 -3218,432z"/>
  <path class="fil1" d="M8372 18743l0 0c163,-622 205,-2732 691,-4178 1,-2 2,-4 3,-6 -488,1446 -531,3561 -694,4184z"/>
  <path class="fil2" d="M8266 18922c-1,0 -2,0 -3,-1 1,1 2,1 3,1 42,0 76,-64 106,-179l0 0c-30,115 -64,179 -106,179z"/>
  <path class="fil3" d="M8807 14452c7,-31 15,-61 23,-92l-756 -373c0,-9 0,-17 0,-26 -5,-362 -200,-920 -297,-1549 57,-279 102,-557 135,-788 15,0 32,0 50,0 271,-4 849,-51 1294,-358 -40,1083 -204,2441 -446,3175 0,2 -1,3 -1,5 -1,2 -2,4 -2,6z"/>
  <path class="fil1" d="M7543 16268c0,-368 48,-715 168,-992 -120,277 -168,624 -168,992z"/>
  <path class="fil3" d="M8213 18827c-1,0 -2,0 -3,0 -2,-1 -3,-1 -5,-2l0 0c-169,-55 -562,-1510 -562,-2732 0,-380 38,-737 132,-1022 6,-18 13,-36 19,-53 224,-611 303,-1166 303,-1166l0 0 769 393c-8,31 -17,62 -25,94 -383,1489 -416,3663 -544,4304 -24,118 -51,184 -84,184z"/>
  <path class="fil4" d="M8033 11525c0,0 -365,1490 -788,2249 -424,759 -694,1358 -1004,1158 -310,-200 -136,-857 53,-1704 189,-846 -38,-1886 969,-3871 1006,-1986 1346,728 770,2168z"/>
  <path class="fil5" d="M9159 8686c0,0 719,684 710,2203 0,0 -616,569 -2108,664 0,0 -806,-356 -1919,-403 0,0 190,-1943 1113,-2819 924,-877 1493,-403 2204,355z"/>
  <path class="fil6" d="M7879 11464c24,-149 31,-302 27,-455 733,-236 1388,-648 1794,-1331 92,297 161,664 169,1105 -25,14 -875,484 -1990,681z"/>
  <path class="fil7" d="M9869 10783c0,0 -882,494 -2037,690 0,0 -71,124 -18,266 0,0 1226,80 2017,-409 0,0 172,-53 145,-311 -15,-143 -36,-290 -107,-236z"/>
  <path class="fil8" d="M8013 11744c-23,0 -45,0 -65,0 -85,-2 -134,-5 -134,-5 -14,-39 -20,-76 -20,-110 0,-91 38,-156 38,-156 1155,-196 2037,-690 2037,-690 11,-8 20,-12 28,-12 49,0 66,125 79,248 2,19 3,37 3,53 0,213 -148,258 -148,258 -596,369 -1439,414 -1818,414z"/>
  <path class="fil4" d="M6082 14308c0,0 73,64 -628,-40 -700,-103 -1724,533 -2191,637l-3 382c0,0 599,-180 1400,-95 800,85 984,-58 1328,-93 805,-81 801,-787 94,-791z"/>
  <polygon class="fil9" points="9623,18975 7944,18897 7942,19062 9625,19058 "/>
  <path class="fil9" d="M8475 18393l-532 133 -1 401 1681 48c0,0 -40,-174 -1148,-582z"/>
  <path class="fil10" d="M9133 18740c-48,62 -72,141 -68,219l-1123 -32 1 -401 532 -133c317,117 546,214 712,294 -20,15 -38,33 -54,53z"/>
  <path class="fil9" d="M8610 18425c-58,59 -99,130 -145,198 -17,25 24,49 41,24 44,-64 82,-133 138,-188 21,-22 -12,-55 -34,-34z"/>
  <path class="fil9" d="M8723 18459c-58,58 -98,130 -145,197 -17,26 24,49 41,24 44,-64 82,-132 138,-188 21,-21 -12,-55 -34,-33z"/>
  <path class="fil9" d="M8847 18501c-58,59 -98,130 -145,198 -17,25 24,49 41,24 45,-64 83,-133 138,-188 22,-22 -12,-55 -34,-34z"/>
  <path class="fil10" d="M8575 18446c0,0 -12,-220 -87,-182 -76,37 -333,44 -189,294 145,251 276,-112 276,-112z"/>
  <polygon class="fil11" points="8924,18942 7944,18919 7943,18969 9623,19009 9623,18975 "/>
  <polygon class="fil9" points="3070,16573 2904,14901 2740,14923 2987,16587 "/>
  <path class="fil9" d="M3480 15354l-209 -508 -397 57 196 1670c0,0 165,-64 410,-1219z"/>
  <path class="fil10" d="M3231 16055c-68,-39 -149,-51 -226,-36l-131 -1116 397 -57 209 508c-70,330 -133,570 -188,746 -19,-17 -39,-32 -61,-45z"/>
  <path class="fil9" d="M3465 15490c-65,-48 -140,-77 -211,-112 -28,-13 -52,28 -24,41 71,35 146,64 211,112 24,18 48,-23 24,-41z"/>
  <path class="fil9" d="M3448 15607c-65,-48 -140,-77 -211,-112 -27,-13 -52,27 -24,41 71,35 146,64 211,112 25,18 48,-23 24,-41z"/>
  <path class="fil9" d="M3424 15736c-65,-48 -140,-77 -211,-112 -27,-13 -52,28 -24,41 71,35 146,64 211,112 24,18 48,-23 24,-41z"/>
  <path class="fil10" d="M3442 15460c0,0 215,-44 167,-113 -48,-69 -91,-322 -319,-143 -227,178 152,256 152,256z"/>
  <polygon class="fil11" points="3001,15881 2882,14904 2832,14910 3036,16579 3070,16573 "/>
  <path class="fil10" d="M8771 8524c118,-35 180,-63 180,-63 125,27 178,169 178,169 0,0 -104,42 -283,96 -24,-68 -49,-135 -75,-202z"/>
  <path class="fil10" d="M6980 8868c-242,-33 -410,-69 -410,-69 -8,-143 134,-214 134,-214 115,20 227,36 334,49 -17,78 -37,156 -58,234z"/>
  <path class="fil10" d="M7180 8649c662,60 1157,-15 1453,-88 26,68 52,136 77,203 -175,47 -395,97 -647,132 -301,43 -654,22 -941,-11 20,-78 41,-157 58,-236z"/>
  <path class="fil7" d="M5882 10916c0,0 487,300 1729,499 317,16 293,87 293,114 0,85 -21,138 -84,237 0,0 -1247,80 -1978,-409 0,0 -110,-39 -85,-181 24,-143 60,-314 125,-260z"/>
  <path class="fil1" d="M6952 8334c0,0 0,0 0,0 0,0 0,0 0,0zm6 -6c1,-1 2,-2 3,-3 -1,1 -2,2 -3,3zm4 -4c8,-7 16,-15 24,-22 -8,7 -16,15 -24,22zm26 -24l0 0z"/>
  <path class="fil6" d="M7138 8824c-48,-2 -95,-5 -144,-8 16,-61 30,-121 44,-182 -101,-12 -205,-27 -313,-45 70,-92 146,-178 227,-255 0,0 0,0 0,0 1,-1 2,-2 3,-3 1,-1 2,-2 3,-3 1,-1 2,-2 3,-3 1,0 1,0 1,-1 8,-7 16,-15 24,-22 1,-1 2,-2 2,-2l0 0c339,-313 630,-442 899,-442 374,0 704,251 1058,606 -19,8 -78,32 -174,60 10,25 19,51 29,76 -43,15 -88,30 -135,45 -11,-28 -21,-56 -32,-84 -220,54 -551,110 -978,110 -147,0 -306,-7 -475,-22 -13,59 -27,117 -42,175z"/>
  <path class="fil12" d="M8800 8600c-10,-25 -19,-51 -29,-76 96,-28 155,-52 174,-60 19,19 37,38 56,57 -59,26 -126,52 -201,79z"/>
  <path class="fil12" d="M6994 8816c-128,-10 -260,-24 -397,-44 41,-63 83,-124 128,-183 108,18 212,33 313,45 -13,61 -28,121 -44,182z"/>
  <path class="fil12" d="M7375 8830c-77,0 -156,-2 -237,-6 15,-58 29,-116 42,-175 169,15 328,22 475,22 427,0 758,-56 978,-110 11,28 21,56 32,84 -321,99 -754,185 -1290,185z"/>
  <path class="fil13" d="M6482 7235l350 1237c0,0 1330,228 1976,-135l-189 -954 -2137 -148z"/>
  <path class="fil4" d="M11232 1895c0,0 -65,-434 -4,-420 60,14 98,250 98,250 0,0 247,-645 297,-625 50,21 -122,537 -122,537 0,0 692,-1036 158,64 0,0 749,-887 97,95 0,0 824,-578 -112,293 -937,871 -412,-194 -412,-194z"/>
  <path class="fil14" d="M7897 3056c0,0 606,651 556,2052 1,0 -175,114 -322,148l-92 -542 64 560 -324 79 118 -2297z"/>
  <polygon class="fil13" points="7660,4918 7737,5726 8357,5778 7569,6642 6468,5871 6983,5757 6978,4665 "/>
  <path class="fil15" d="M7126 3187c0,0 881,-29 1116,1053 235,1083 -553,1282 -1077,1229 -525,-52 -844,-463 -936,-784 -93,-321 48,-1427 897,-1498z"/>
  <path class="fil14" d="M7452 4050c-94,1 -175,2 -253,19 -39,6 -76,18 -114,33 -39,15 -75,36 -118,56 17,-44 45,-84 84,-113 38,-31 84,-50 132,-60 48,-9 97,-9 143,2 46,11 91,30 126,63z"/>
  <path class="fil14" d="M8148 3926c-87,-15 -160,-30 -226,-19 -33,3 -63,14 -94,32 -33,17 -62,43 -99,69 5,-44 21,-88 54,-122 30,-37 78,-61 126,-68 49,-6 98,2 138,22 41,20 78,48 101,86z"/>
  <path class="fil16" d="M7813 4452c37,1 69,16 96,32 27,17 51,32 74,51l34 26 -25 31c-18,24 -40,45 -63,66 -23,20 -48,40 -78,55 6,-34 18,-63 31,-91 14,-27 29,-54 47,-78l9 57c-29,-17 -54,-41 -74,-65 -19,-26 -35,-51 -51,-84z"/>
  <path class="fil17" d="M6744 4148c0,0 197,1158 364,1511 0,0 -281,96 -575,12 0,0 -161,-313 -208,-520 0,0 106,432 159,536 0,0 -297,-99 -534,-314l-157 -435 118 450 -128 -61c0,0 -447,-1041 -231,-1645 216,-604 858,-999 1330,-988 522,12 1149,127 1350,991 0,0 -256,134 -444,168 0,0 -126,-439 -276,-582 0,0 221,387 209,611 0,0 -254,73 -397,60 0,0 -31,-329 -166,-595 0,0 141,477 108,613 0,0 -134,54 -290,70 0,0 -57,-329 -82,-609 0,0 20,474 56,632 -124,77 -249,52 -249,52 18,-397 -121,-342 0,-528 0,0 17,291 43,571z"/>
  <path class="fil14" d="M5552 3682l4 -9c90,235 221,449 408,609 279,240 571,362 892,451 71,342 165,742 252,926 0,0 -281,96 -575,12 0,0 -161,-313 -208,-520 0,0 106,432 159,536 0,0 -297,-99 -534,-314l-157 -435 118 450 -128 -61c0,0 -447,-1041 -231,-1645z"/>
  <path class="fil18" d="M8270 6818c90,325 441,149 1317,-819 58,-78 1437,-1589 1842,-2716 188,-524 86,-744 86,-744l63 -167c-52,-216 -473,-293 -473,-293l-120 171c-492,51 -856,929 -1123,1372 -147,245 -1095,1851 -1807,2012 130,-3 171,1027 215,1184z"/>
  <path class="fil19" d="M8821 6227c-356,281 -352,237 -581,379 11,100 20,178 30,212 90,325 441,149 1317,-819 40,-54 711,-792 1255,-1614 -973,1170 -1965,1789 -2021,1842z"/>
  <path class="fil4" d="M3490 1915c0,0 65,-434 5,-420 -61,14 -98,250 -98,250 0,0 -248,-645 -298,-625 -50,21 123,537 123,537 0,0 -692,-1036 -159,64 0,0 -749,-886 -97,95 0,0 -824,-578 113,293 937,871 411,-194 411,-194z"/>
  <path class="fil18" d="M6453 6839c-90,325 -441,148 -1318,-820 -58,-78 -481,-525 -537,-614 -510,-801 -1228,-2172 -1351,-2286 -122,-114 -39,-560 -39,-560l-64 -167c53,-216 474,-292 474,-292l119 170c492,52 857,929 1123,1372 147,245 1176,1868 1888,2029 -130,-3 -252,1010 -295,1168z"/>
  <path class="fil18" d="M9049 6691c-71,-427 -124,-602 -302,-815 -103,-124 -433,-200 -692,-242 -143,277 -699,568 -1307,37 -397,74 -704,258 -944,555 168,452 550,1216 507,1281 16,189 36,443 117,605 142,285 2265,249 2496,-53 231,-302 196,-942 125,-1368z"/>
  <path class="fil19" d="M8009 8122c-546,-16 -1063,-227 -1507,-535 -69,-47 -135,-99 -199,-152 10,38 13,63 8,72 16,189 36,443 117,605 141,281 2219,250 2487,-44 -298,43 -597,64 -906,54z"/>
  <path class="fil20" d="M8006 4800l-730 68c0,0 170,275 478,252 104,-8 275,-119 252,-320z"/>
  <path class="fil21" d="M7387 4992c77,-31 163,-48 251,-51 105,-4 200,36 278,101 59,-54 102,-135 90,-242l-730 68c0,0 39,62 111,124z"/>
  <path class="fil22" d="M8182 4288c-30,-26 -60,-42 -90,-55 -30,-11 -61,-20 -86,-18 -26,1 -44,11 -63,35 -19,23 -30,58 -48,94 -13,-37 -21,-79 -5,-121 7,-22 22,-41 41,-58 21,-15 46,-24 70,-25 49,-2 90,17 122,44 32,26 57,63 59,104z"/>
  <path class="fil22" d="M7462 4402c-31,-25 -61,-41 -91,-54 -30,-12 -60,-20 -86,-18 -25,0 -44,10 -63,34 -19,24 -30,58 -48,94 -13,-37 -20,-78 -4,-121 7,-21 21,-41 41,-58 21,-15 45,-24 70,-25 48,-1 90,17 122,44 31,26 56,64 59,104z"/>
 </g>
</svg>
