<?xml version="1.0" encoding="UTF-8"?>
<!DOCTYPE svg PUBLIC "-//W3C//DTD SVG 1.1//EN" "http://www.w3.org/Graphics/SVG/1.1/DTD/svg11.dtd">
<!-- Creator: CorelDRAW X7 -->
<svg xmlns="http://www.w3.org/2000/svg" xml:space="preserve" width="148mm" height="210mm" version="1.1" style="shape-rendering:geometricPrecision; text-rendering:geometricPrecision; image-rendering:optimizeQuality; fill-rule:evenodd; clip-rule:evenodd"
viewBox="0 0 14800 21000"
 xmlns:xlink="http://www.w3.org/1999/xlink">
 <defs>
  <style type="text/css">
   <![CDATA[
    .fil1 {fill:#001627}
    .fil17 {fill:#04273D}
    .fil15 {fill:#231E2D}
    .fil18 {fill:#2B3B46}
    .fil14 {fill:#2C263A}
    .fil13 {fill:#303F49}
    .fil20 {fill:#7EBABA}
    .fil9 {fill:#8691A1}
    .fil8 {fill:#959FAF}
    .fil11 {fill:#99A7BB}
    .fil19 {fill:#99CCCC}
    .fil10 {fill:#AAB8CC}
    .fil16 {fill:#C4817A}
    .fil4 {fill:#D1D3D5}
    .fil6 {fill:#E5B09E}
    .fil5 {fill:#E5E7E9}
    .fil0 {fill:#E8E8E8}
    .fil2 {fill:#F2AEA0}
    .fil3 {fill:#FFC0B1}
    .fil7 {fill:#FFC1AC}
    .fil12 {fill:white}
   ]]>
  </style>
 </defs>
 <g id="Слой_x0020_1">
  <metadata id="CorelCorpID_0Corel-Layer"/>
  <path class="fil0" d="M8426 19193c-1858,0 -3364,-239 -3364,-534 0,-199 687,-372 1706,-464 39,234 84,373 146,373 0,0 0,0 0,0l0 0c4,0 7,0 11,-1 67,-17 162,-168 261,-404 384,-24 802,-37 1240,-37 1858,0 3364,239 3364,533 0,295 -1506,534 -3364,534z"/>
  <path class="fil1" d="M5568 3205c0,0 -193,869 560,2054 0,0 209,9 353,-36l-196 -515 229 517 320 -96 -1266 -1924z"/>
  <polygon class="fil2" points="6742,4536 6864,5340 6274,5541 7250,6188 8131,5172 7603,5186 7343,4124 "/>
  <path class="fil3" d="M6301 2928c0,0 -776,421 -430,1474 345,1054 1126,827 1553,516 426,-311 493,-827 410,-1151 -82,-324 -765,-1208 -1533,-839z"/>
  <path class="fil2" d="M6472 5138c363,-206 927,-562 1286,-964 35,-40 71,-71 106,-96 5,-113 -7,-220 -30,-311 -82,-324 -765,-1208 -1533,-839 0,0 -776,421 -430,1474 144,439 363,655 601,736z"/>
  <path class="fil4" d="M6914 18568c4,0 7,0 11,-1 67,-17 162,-168 261,-404l0 0c-99,236 -194,387 -261,404 -4,1 -7,1 -11,1z"/>
  <path class="fil5" d="M6445 15627c-77,-452 -176,-901 -309,-1305 133,404 232,853 309,1305zm-310 -1308c-5,-13 -9,-26 -14,-39 5,13 9,26 14,39zm-14 -41c-8,-24 -16,-47 -24,-70 8,23 16,46 24,70zm-26 -75l16 -8 0 0 -16 8zm-578 -2714c0,-1 0,-2 0,-3 0,1 0,2 0,3zm0 -5c-17,-175 -31,-347 -41,-511l0 0c10,165 24,336 41,511z"/>
  <path class="fil6" d="M6205 14146l0 0 0 0c-237,-630 -417,-1725 -498,-2706 -1,0 -1,-1 -1,-2 0,-1 0,-1 0,-2 -14,-175 -26,-347 -34,-512 500,365 1204,410 1522,410 68,0 119,-2 145,-3 4,14 9,29 13,45 2,46 3,93 3,139 0,864 -353,1674 -353,2146 0,8 0,17 1,25l-798 460z"/>
  <path class="fil6" d="M6879 18472c0,0 0,0 0,0 -170,-1 -185,-1480 -394,-2941 -64,-452 -147,-901 -259,-1305 -1,-1 -1,-2 -1,-3 -4,-13 -8,-26 -11,-39 0,-1 -1,-2 -1,-2 -7,-24 -13,-47 -20,-70 -1,-2 -1,-3 -2,-5l0 0 14 -8 798 -461c0,0 84,540 323,1133 115,286 161,653 161,1044 0,815 -197,1737 -379,2252 -84,236 -164,387 -220,404 -3,1 -6,1 -9,1l0 0z"/>
  <path class="fil7" d="M12203 4077c0,0 502,64 463,18 -68,-79 -281,-86 -281,-86 0,0 559,-202 546,-252 -13,-51 -417,56 -417,56 0,0 1109,-488 -57,-120 0,0 1050,-540 -62,-100 0,0 903,-553 -324,64 -1134,571 132,420 132,420z"/>
  <path class="fil7" d="M7696 11014c0,0 352,1400 800,2109 448,710 728,1270 1086,1078 119,-64 207,-59 265,-54 116,12 111,28 -8,-503 -179,-796 -129,-2827 -1186,-4684 -1056,-1858 -1548,705 -957,2054z"/>
  <path class="fil8" d="M6142 8321c0,0 -720,685 -711,2206 0,0 616,569 2111,664 0,0 806,-356 1920,-403 0,0 -189,-1945 -1114,-2823 -925,-877 -1494,-403 -2206,356z"/>
  <path class="fil9" d="M7423 11103c-1116,-198 -1967,-669 -1992,-683 8,-441 77,-809 170,-1106 405,684 1061,1097 1795,1333 -4,153 3,306 27,456z"/>
  <path class="fil10" d="M5431 10420c0,0 883,495 2039,691 0,0 72,124 18,267 0,0 -1227,80 -2019,-410 0,0 -172,-53 -145,-311 15,-144 36,-290 107,-237z"/>
  <path class="fil11" d="M7289 11383c-380,-1 -1223,-46 -1820,-415 0,0 -148,-45 -148,-258 0,-17 1,-34 3,-53 13,-123 30,-248 79,-248 8,0 18,3 28,11 0,0 883,495 2039,691 0,0 38,66 38,156 0,34 -5,72 -20,111 0,0 -9,0 -25,1 -32,1 -92,4 -174,4z"/>
  <path class="fil7" d="M9756 13358c0,0 5,335 503,1276 498,940 487,2047 517,3170l-286 457c0,0 -181,-1018 -720,-2119 -539,-1101 -406,-1438 -666,-2063 -480,-1155 241,-1750 652,-721z"/>
  <polygon class="fil12" points="5557,18621 7237,18543 7239,18709 5555,18704 "/>
  <path class="fil12" d="M6705 18039l533 133 1 401 -1682 48c0,0 39,-174 1148,-582z"/>
  <path class="fil13" d="M6046 18386c49,62 73,141 69,219l1124 -32 -1 -401 -533 -133c-317,116 -546,214 -712,294 19,16 38,33 53,53z"/>
  <path class="fil12" d="M6537 18105c55,55 93,123 137,188 18,25 59,1 42,-24 -47,-68 -87,-140 -146,-198 -21,-22 -55,12 -33,34z"/>
  <path class="fil12" d="M6423 18138c56,56 94,124 138,188 17,25 59,2 41,-24 -46,-67 -87,-139 -145,-197 -22,-22 -55,12 -34,33z"/>
  <path class="fil12" d="M6299 18181c55,55 94,124 138,188 17,25 58,1 41,-24 -47,-68 -87,-139 -145,-198 -22,-22 -56,12 -34,34z"/>
  <path class="fil13" d="M6605 18091c0,0 13,-219 88,-182 75,38 333,44 188,295 -144,251 -276,-113 -276,-113z"/>
  <polygon class="fil14" points="5556,18655 7238,18616 7237,18566 6253,18589 5557,18621 "/>
  <path class="fil15" d="M6791 4030c38,77 95,126 128,110 33,-16 29,-92 -9,-169 -38,-76 -96,-126 -129,-109 -33,16 -28,92 10,168z"/>
  <path class="fil15" d="M6086 4304c38,77 95,126 128,110 33,-17 29,-92 -9,-169 -38,-77 -96,-126 -129,-110 -33,17 -29,92 10,169z"/>
  <path class="fil1" d="M6456 3838c14,-46 43,-85 77,-118 35,-33 77,-58 123,-75 46,-15 96,-22 144,-14 48,5 93,25 130,54 -48,5 -90,5 -130,12 -41,6 -79,15 -116,29 -76,25 -146,66 -228,112z"/>
  <path class="fil1" d="M5792 4084c1,-46 18,-88 44,-125 25,-38 63,-70 108,-90 45,-18 99,-22 143,-5 46,13 83,43 109,78 -45,-3 -84,-11 -120,-9 -36,0 -68,6 -98,19 -62,25 -118,75 -186,132z"/>
  <path class="fil16" d="M6336 4404c9,36 12,66 14,97 1,32 -3,67 -14,98l-30 -50c30,7 58,18 87,31 28,13 55,27 82,48 -33,8 -65,10 -96,9 -30,-1 -61,-4 -91,-10l-38 -8 9 -42c6,-29 14,-56 24,-86 11,-30 26,-62 53,-87z"/>
  <path class="fil17" d="M7117 3563c0,0 416,1100 452,1489 0,0 291,-59 502,-280 0,0 -19,-352 -84,-554 0,0 128,426 134,543 0,0 206,-236 303,-541l-86 -455 127 448 79 -119c0,0 -141,-1124 -634,-1536 -492,-412 -1247,-428 -1649,-179 -444,275 -927,691 -663,1539 0,0 289,-14 468,-80 0,0 -113,-443 -56,-642 0,0 5,446 129,633 0,0 256,-66 373,-149 0,0 -140,-300 -158,-598 0,0 120,484 217,584 0,0 143,-21 286,-87 0,0 -118,-313 -238,-567 0,0 223,420 272,574 146,4 241,-81 241,-81 -217,-334 -69,-356 -267,-456 0,0 132,260 252,514z"/>
  <path class="fil1" d="M7910 2558l-7 -6c40,248 35,499 -44,732 -120,349 -310,603 -542,841 112,332 233,725 252,927 0,0 291,-59 502,-280 0,0 -19,-352 -84,-554 0,0 128,426 134,543 0,0 206,-236 303,-541l-86 -455 127 448 79 -119c0,0 -141,-1124 -634,-1536z"/>
  <path class="fil12" d="M10989 17911c-102,103 -247,166 -406,186 -58,7 -114,1 -166,-16l102 362c0,0 282,571 767,376 341,-136 -40,-627 -297,-908z"/>
  <path class="fil13" d="M11258 18241c-172,-258 -401,-491 -401,-491 0,0 -240,211 -527,25l189 668c0,0 65,104 211,243 15,-295 257,-399 528,-445z"/>
  <path class="fil13" d="M10587 17901c0,0 -226,-225 -104,-264 122,-38 426,-393 421,201 -5,474 -317,63 -317,63z"/>
  <path class="fil12" d="M10644 17965c71,-47 151,-75 228,-110 27,-12 3,-53 -24,-41 -77,35 -157,63 -228,110 -25,17 -1,58 24,41z"/>
  <path class="fil12" d="M10706 18078c71,-44 149,-68 226,-100 28,-11 16,-57 -13,-46 -80,33 -163,59 -237,105 -26,16 -2,57 24,41z"/>
  <path class="fil12" d="M10789 18184c69,-50 147,-81 222,-118 28,-14 4,-55 -24,-41 -75,37 -153,68 -222,118 -24,18 0,59 24,41z"/>
  <path class="fil14" d="M10572 18530c15,17 30,33 46,50 123,124 281,252 441,253 17,0 33,-1 49,-4 124,-23 209,-58 265,-112 20,-19 35,-41 47,-64 4,-43 -4,-91 -20,-141l0 0c-1,73 -18,126 -62,169 -44,43 -120,77 -239,98 -13,3 -26,4 -40,4 -132,1 -287,-117 -405,-238 -59,-61 -109,-122 -145,-167l-13 -17 23 82c0,0 18,36 53,87z"/>
  <path class="fil13" d="M6530 8159c-118,-35 -180,-63 -180,-63 -125,26 -178,169 -178,169 0,0 104,42 283,96 25,-68 50,-135 75,-202z"/>
  <path class="fil13" d="M8323 8503c242,-33 410,-69 410,-69 9,-142 -133,-214 -133,-214 -116,21 -227,37 -335,49 18,79 37,157 58,234z"/>
  <path class="fil13" d="M8123 8284c-663,60 -1158,-15 -1455,-88 -26,68 -51,136 -76,204 174,46 395,96 647,132 301,42 655,22 942,-11 -20,-79 -41,-158 -58,-237z"/>
  <path class="fil10" d="M9422 10553c0,0 -488,301 -1731,500 -317,16 -292,87 -292,114 0,85 20,138 83,237 0,0 1249,80 1980,-409 0,0 111,-39 86,-182 -25,-142 -60,-313 -126,-260z"/>
  <path class="fil5" d="M8419 8037c-23,-25 -47,-48 -71,-72 -114,-108 -223,-196 -327,-265 104,69 213,157 327,265 24,23 48,47 71,72z"/>
  <path class="fil9" d="M8165 8460c-15,-59 -29,-117 -42,-176 -170,15 -328,22 -475,22 -428,0 -759,-56 -980,-110 -10,28 -21,56 -31,84 -48,-15 -93,-30 -135,-45 9,-25 19,-51 28,-76 -96,-29 -155,-52 -174,-60 355,-356 685,-607 1059,-607 188,0 387,63 606,208 104,69 213,157 327,265 24,24 48,47 71,72 56,59 109,121 159,187 -108,19 -212,33 -313,45 14,61 29,122 44,182 -48,4 -96,6 -144,9z"/>
  <path class="fil18" d="M6502 8235c-76,-26 -143,-53 -202,-79 19,-19 38,-38 56,-57 19,8 78,31 174,60 -9,25 -19,51 -28,76z"/>
  <path class="fil18" d="M8309 8451c-15,-60 -30,-121 -44,-182 101,-12 205,-26 313,-45 45,59 88,120 128,183 -137,20 -269,35 -397,44z"/>
  <path class="fil18" d="M7927 8465c-536,0 -970,-86 -1290,-185 10,-28 21,-56 31,-84 221,54 552,110 980,110 147,0 305,-7 475,-22 13,59 27,117 42,176 -81,3 -160,5 -238,5z"/>
  <path class="fil19" d="M5993 7081c-61,-429 -240,-924 -135,-1181 61,-149 353,-321 588,-440 220,221 838,331 1258,-359 522,-65 1109,270 1504,642 -151,344 -576,456 -540,883 5,53 31,1019 -19,1334 -50,314 -1905,303 -2217,84 -312,-218 -377,-535 -439,-963z"/>
  <path class="fil20" d="M8056 7295c-580,296 -1234,344 -1852,514 56,88 130,167 228,235 312,219 2167,230 2217,-84 37,-235 32,-832 25,-1142 -177,194 -385,357 -618,477z"/>
  <path class="fil19" d="M7721 5105c0,0 3822,-1368 3958,-1326 135,43 406,338 237,508 -170,170 -965,927 -1862,1252 -897,326 -1301,379 -1386,1087 -84,708 -947,-1521 -947,-1521z"/>
  <path class="fil19" d="M11611 3830l305 -85c0,0 186,170 203,356l-373 237 -135 -508z"/>
  <path class="fil19" d="M4914 4919c0,0 -33,316 1050,1952 354,535 482,-1411 482,-1411 0,0 -336,-688 -369,-722 -34,-34 -1163,181 -1163,181z"/>
  <path class="fil16" d="M7143 4477c7,76 -22,151 -70,211 -25,30 -55,55 -90,73 -33,19 -73,25 -111,24 30,-24 57,-45 81,-68 24,-23 48,-46 68,-72 42,-51 78,-106 122,-168z"/>
  <path class="fil7" d="M8173 3525c0,0 505,36 463,-7 -71,-75 -285,-71 -285,-71 0,0 548,-232 532,-282 -16,-49 -414,79 -414,79 0,0 1081,-547 -63,-116 0,0 1019,-597 -67,-97 0,0 871,-601 -321,82 -1101,631 155,412 155,412z"/>
  <path class="fil19" d="M5072 4614c487,-328 2418,-1376 2559,-1355 140,21 454,270 313,464 -140,194 -931,993 -1766,1455 -835,463 -1625,-214 -1106,-564z"/>
  <path class="fil19" d="M7572 3320l287 -132c0,0 211,138 257,319l-331 293 -213 -480z"/>
 </g>
</svg>
